<svg xmlns="http://www.w3.org/2000/svg" width="30" height="30" viewBox="0 0 30 30">
  <metadata><?xpacket begin="﻿" id="W5M0MpCehiHzreSzNTczkc9d"?>
<x:xmpmeta xmlns:x="adobe:ns:meta/" x:xmptk="Adobe XMP Core 5.6-c138 79.159824, 2016/09/14-01:09:01        ">
   <rdf:RDF xmlns:rdf="http://www.w3.org/1999/02/22-rdf-syntax-ns#">
      <rdf:Description rdf:about=""/>
   </rdf:RDF>
</x:xmpmeta>
                                                                                                    
                                                                                                    
                                                                                                    
                                                                                                    
                                                                                                    
                                                                                                    
                                                                                                    
                                                                                                    
                                                                                                    
                                                                                                    
                                                                                                    
                                                                                                    
                                                                                                    
                                                                                                    
                                                                                                    
                                                                                                    
                                                                                                    
                                                                                                    
                                                                                                    
                                                                                                    
                           
<?xpacket end="w"?></metadata>
<defs>
    <style>
      .cls-1 {
        fill: #ababf0;
        fill-rule: evenodd;
      }
    </style>
  </defs>
  <path class="cls-1" d="M416.305,492.065a2.642,2.642,0,1,0,2.871,2.871A2.647,2.647,0,0,0,416.305,492.065Zm-9.131,0a2.642,2.642,0,1,0,2.872,2.871A2.646,2.646,0,0,0,407.174,492.065Zm9.131,0a2.642,2.642,0,1,0,2.871,2.871A2.647,2.647,0,0,0,416.305,492.065Zm-9.131,0a2.642,2.642,0,1,0,2.872,2.871A2.646,2.646,0,0,0,407.174,492.065ZM412,481a15,15,0,1,0,15,15A15,15,0,0,0,412,481Zm10.977,21.671-0.174.135a16.982,16.982,0,0,1-7.691,3.1l-0.263.034a0.187,0.187,0,0,1-.2-0.12l-1.325-3.548a0.186,0.186,0,0,1,.146-0.249l0.406-.064A9.9,9.9,0,0,0,419,499.612a0.044,0.044,0,0,0-.044-0.075c-0.138.052-.29,0.111-0.447,0.173a9.6,9.6,0,0,1-1.04.366,23.732,23.732,0,0,1-5.485.652V500.7h0v0.032a23.757,23.757,0,0,1-5.491-.652,9.664,9.664,0,0,1-1.039-.366c-0.157-.062-0.309-0.121-0.447-0.173a0.044,0.044,0,0,0-.044.075,9.9,9.9,0,0,0,5.123,2.353l0.406,0.064a0.186,0.186,0,0,1,.146.249l-1.325,3.539a0.187,0.187,0,0,1-.2.12l-0.263-.034a16.982,16.982,0,0,1-7.691-3.1l-0.174-.135-0.024-.219c-0.47-4.174-.03-10.837,1.52-14.762l0.073-.188a0.023,0.023,0,0,1,.012-0.012l0.184-.084a15.894,15.894,0,0,1,5.537-.932h2.3a0.022,0.022,0,0,1,.009.043l-4.523,2.09a0.022,0.022,0,0,0,.015.041,22.99,22.99,0,0,1,11.8,0,0.022,0.022,0,0,0,.015-0.041l-4.37-2.1a0.023,0.023,0,0,1,.01-0.043h2.128a15.89,15.89,0,0,1,5.537.932l0.184,0.084a0.023,0.023,0,0,1,.012.012l0.074,0.188c1.549,3.925,1.989,10.588,1.519,14.762Zm-6.672-10.606a2.642,2.642,0,1,0,2.871,2.871A2.647,2.647,0,0,0,416.305,492.065Zm-9.131,0a2.642,2.642,0,1,0,2.872,2.871A2.646,2.646,0,0,0,407.174,492.065Z" transform="translate(-397 -481)"/>
</svg>
