<svg xmlns="http://www.w3.org/2000/svg" width="30" height="30" viewBox="0 0 30 30">
  <metadata><?xpacket begin="﻿" id="W5M0MpCehiHzreSzNTczkc9d"?>
<x:xmpmeta xmlns:x="adobe:ns:meta/" x:xmptk="Adobe XMP Core 5.6-c138 79.159824, 2016/09/14-01:09:01        ">
   <rdf:RDF xmlns:rdf="http://www.w3.org/1999/02/22-rdf-syntax-ns#">
      <rdf:Description rdf:about=""/>
   </rdf:RDF>
</x:xmpmeta>
                                                                                                    
                                                                                                    
                                                                                                    
                                                                                                    
                                                                                                    
                                                                                                    
                                                                                                    
                                                                                                    
                                                                                                    
                                                                                                    
                                                                                                    
                                                                                                    
                                                                                                    
                                                                                                    
                                                                                                    
                                                                                                    
                                                                                                    
                                                                                                    
                                                                                                    
                                                                                                    
                           
<?xpacket end="w"?></metadata>
<defs>
    <style>
      .cls-1 {
        fill: #1facf0;
        fill-rule: evenodd;
      }
    </style>
  </defs>
  <path id="skype" class="cls-1" d="M426.246,444.671a13.915,13.915,0,0,0-13.746-16.09,14.025,14.025,0,0,0-2.173.171,8.413,8.413,0,0,0-11.575,11.577,14.25,14.25,0,0,0-.169,2.171,13.925,13.925,0,0,0,16.088,13.748,8.412,8.412,0,0,0,11.575-11.577h0Zm-7.139,4.159a5.759,5.759,0,0,1-2.584,1.985,10.259,10.259,0,0,1-4.016.716,9.586,9.586,0,0,1-4.6-.98,5.938,5.938,0,0,1-2.093-1.881,4.083,4.083,0,0,1-.81-2.3,1.533,1.533,0,0,1,.5-1.139,1.767,1.767,0,0,1,1.263-.474,1.574,1.574,0,0,1,1.056.371,2.789,2.789,0,0,1,.723,1.076,6.766,6.766,0,0,0,.765,1.37,3.016,3.016,0,0,0,1.144.9,4.521,4.521,0,0,0,1.95.353,4.64,4.64,0,0,0,2.7-.715,2.078,2.078,0,0,0,1.024-1.765,1.767,1.767,0,0,0-.545-1.354,3.611,3.611,0,0,0-1.444-.808q-0.893-.285-2.4-0.6a18.664,18.664,0,0,1-3.385-1.029,5.471,5.471,0,0,1-2.18-1.614,4.015,4.015,0,0,1-.808-2.554,4.167,4.167,0,0,1,.853-2.579,5.329,5.329,0,0,1,2.465-1.732,10.721,10.721,0,0,1,3.773-.6,10.02,10.02,0,0,1,3,.4,6.587,6.587,0,0,1,2.105,1.063,4.533,4.533,0,0,1,1.228,1.4,3.045,3.045,0,0,1,.391,1.437,1.672,1.672,0,0,1-.5,1.175,1.642,1.642,0,0,1-1.239.52,1.5,1.5,0,0,1-1.03-.317,4.113,4.113,0,0,1-.747-1.006,4.478,4.478,0,0,0-1.208-1.511,3.715,3.715,0,0,0-2.257-.536,4.157,4.157,0,0,0-2.331.586,1.657,1.657,0,0,0-.872,1.385,1.332,1.332,0,0,0,.291.859,2.488,2.488,0,0,0,.824.635,5.892,5.892,0,0,0,1.071.422c0.364,0.1.97,0.252,1.81,0.449q1.578,0.342,2.869.758a9.1,9.1,0,0,1,2.194,1.012,4.3,4.3,0,0,1,1.425,1.52,4.559,4.559,0,0,1,.511,2.246,4.881,4.881,0,0,1-.884,2.867h0Zm0,0" transform="translate(-397.5 -427.5)"/>
</svg>
